<?xml version="1.0" encoding="utf-8" ?>
<svg baseProfile="full" height="200mm" version="1.1" viewBox="0,0,200,200" width="200mm" xmlns="http://www.w3.org/2000/svg" xmlns:ev="http://www.w3.org/2001/xml-events" xmlns:xlink="http://www.w3.org/1999/xlink"><defs /><rect fill="#1a1a1a" height="200" width="200" x="0" y="0" /><text alignment-baseline="middle" fill="#e1ed5e" style="dominant-baseline: central; font-size:9.0px; font-family:Arial;" text-anchor="middle" x="100.0" y="100.0">2023</text><line stroke="#e1ed5e" stroke-width="0.3" x1="100.0" x2="100.0" y1="15.0" y2="10.0" /><path d="M 100.0 14.0 a86.0,86.0 0 0,1 42.46469731375804,11.215312516191453" fill="none" id="id13" stroke="none" /><text fill="#e1ed5e" style="font-size:6.75px; font-family:Arial;" text-anchor="middle"><textPath startOffset="22.20632615414155" xlink:href="#id13">January</textPath></text><path d="M 100.0 79.0 l 0.0 -20.78500149957739 a41.78500149957739,41.78500149957739 0 0,0 0.719260112784312,0.006190898869256303 l -0.3577796335117836 20.781921977316692" fill="#ffa80f" stroke="none" /><path d="M 100.36148047927253 79.00311137660856 l 0.27913050123284106 -16.213522947552434 a37.21592551190119,37.21592551190119 0 0,0 0.6404211536463283,0.016540188972239734 l -0.5581782900740372 16.206315966437835" fill="#ff6008" stroke="none" /><path d="M 100.72285384407766 79.0124445844662 l 1.0278746341604894 -29.843620562315404 a50.86131635629959,50.86131635629959 0 0,0 0.8747157466106684,0.03766710006250557 l -1.5414312131604895 29.821505735728707" fill="#d2ff1c" stroke="none" /><path d="M 101.08401301168833 79.027996857942 l 1.0935742683145844 -21.15698127594178 a42.18522507293399,42.18522507293399 0 0,0 0.7248585802170159,0.04372544906160934 l -1.4575948973712123 21.13502255749987" fill="#ffae10" stroke="none" /><path d="M 101.44485096284872 79.0497635885617 l 1.5084721506503553 -21.872739118979073 a42.92469394988685,42.92469394988685 0 0,0 0.7366895627694371,0.05718128851849942 l -1.8847519027821336 21.843532568272106" fill="#ffba11" stroke="none" /><path d="M 101.80526077348638 79.07773832637324 l 1.9528238729468592 -22.632459904058177 a43.716552607901406,43.716552607901406 0 0,0 0.7491661339914844,0.07114235147850459 l -2.342115134028588 22.595492008064493" fill="#ffc512" stroke="none" /><path d="M 102.16513564639614 79.11191278185805 l 2.1650175813610195 -20.886948188929182 a41.99885486817351,41.99885486817351 0 0,0 0.7184470039576473,0.08072589200383042 l -2.524231288828392 20.84658634345475" fill="#ffab0f" stroke="none" /><path d="M 102.52436894288641 79.15227682838746 l 2.7796483934730323 -22.955970990232135 a44.12364697221692,44.12364697221692 0 0,0 0.7532227411456731,0.09778992943812562 l -3.174385863126551 22.904722737629875" fill="#ffcc13" stroke="none" /><path d="M 102.88285421437855 79.19881850522331 l 2.877509336482938 -20.762615626749174 a41.9610655178995,41.9610655178995 0 0,0 0.7145989830222083,0.10531331444172722 l -3.234477299933802 20.710007828146477" fill="#ffab0f" stroke="none" /><path d="M 103.2404852339499 79.25152402106235 l 3.365679976608982 -21.550084356453652 a42.811325899064805,42.811325899064805 0 0,0 0.7271214092698466,0.11998126274617127 l -3.736130592017704 21.488956830767858" fill="#ffb811" stroke="none" /><path d="M 103.59715602781102 79.31037775812273 l 5.325854453151083 -30.632509654569933 a52.09204678681462,52.09204678681462 0 0,0 0.8821040947203446,0.16119888504266455 l -5.852353668974329 30.53629528817653" fill="#c1ff1e" stroke="none" /><path d="M 103.95276090670814 79.375362276772 l 3.9556168699556062 -20.639539511805744 a42.015172996700926,42.015172996700926 0 0,0 0.7091232677181233,0.14224345641891142 l -4.310306547140855 20.568392099309623" fill="#ffac0f" stroke="none" /><path d="M 104.307194497241 79.44645832069477 l 4.451581869009626 -21.24254512818887 a42.70396979033181,42.70396979033181 0 0,0 0.7181532209039819,0.1569604783588254 l -4.816577814067136 21.162771151734173" fill="#ffb610" stroke="none" /><path d="M 104.66035177308747 79.52364482259891 l 4.926742903558284 -21.646807467103663 a43.20038443711317,43.20038443711317 0 0,0 0.7236605694804404,0.17126707626074622 l -5.298627160001248 21.558794478702048" fill="#ffbe11" stroke="none" /><path d="M 105.01212808612495 79.60689891045804 l 5.612047444253713 -22.83402356910925 a44.51356435913516,44.51356435913516 0 0,0 0.7425098060929579,0.18928228224357332 l -6.004266139031697 22.734038290696805" fill="#ffd113" stroke="none" /><path d="M 105.36241919743992 79.69619591428918 l 12.405263867131557 -46.97022704044358 a69.58078632385418,69.58078632385418 0 0,0 1.155379383838186,0.3158088303120506 l -13.211941140193455 46.74973166930524" fill="#38ff7f" stroke="none" /><path d="M 105.71112130821622 79.79150937346287 l 11.559660195691936 -40.90322584717733 a63.505289418436625,63.505289418436625 0 0,0 1.04937888830964,0.30634247336138126 l -12.262029301725002 40.69818504489725" fill="#32ff2f" stroke="none" /><path d="M 106.0581310904928 79.89281104454417 l 6.622452187383718 -21.980194137622163 a43.95617144259345,43.95617144259345 0 0,0 0.722586349600889,0.22451109619111306 l -6.999823909695325 21.86294290654853" fill="#ffc912" stroke="none" /><path d="M 106.40334571778207 80.00007090966166 l 6.885381803797726 -21.505499453738402 a43.5808544864629,43.5808544864629 0 0,0 0.712478855550301,0.234893076805852 l -7.254543481590445 21.383792652673314" fill="#ffc312" stroke="none" /><path d="M 106.74666289553966 80.11325718540242 l 6.660759152806684 -19.633529386715875 a41.732611718515685,41.732611718515685 0 0,0 0.6782900665223484,0.23664208563506592 l -6.997731223392306 19.515966447908603" fill="#ffa70f" stroke="none" /><path d="M 107.08798089147638 80.2323363322302 l 7.4708172779315065 -20.83535572889398 a43.13425307413365,43.13425307413365 0 0,0 0.6967571908259387,0.256621553557012 l -7.828356794530022 20.703670907530643" fill="#ffbd11" stroke="none" /><path d="M 107.4271985657038 80.35727306442388 l 8.163397829155452 -21.589754603441172 a44.08156337759358,44.08156337759358 0 0,0 0.7074394748277704,0.2744755255015063 l -8.533820468982888 21.446036374049118" fill="#ffcb12" stroke="none" /><path d="M 107.76421540070413 80.48803036053334 l 8.553825331849715 -21.496309873270153 a44.135670856395016,44.135670856395016 0 0,0 0.7034724267701485,0.2869640660202572 l -8.922581628208253 21.345884921066315" fill="#ffcc13" stroke="none" /><path d="M 108.09893153111575 80.62456947434976 l 8.308156321194877 -19.875968203842397 a42.5425062027974,42.5425062027974 0 0,0 0.673217418833135,0.28823656496094824 l -8.649057497818328 19.730012110918658" fill="#ffb410" stroke="none" /><path d="M 108.43124777332544 80.76684994638697 l 9.203179229628478 -20.99406064826452 a43.92267633666876,43.92267633666876 0 0,0 0.6898325743156843,0.30950776795855317 l -9.563193922410944 20.832532549789434" fill="#ffc912" stroke="none" /><path d="M 108.76106565485865 80.91482961587045 l 9.48257501523438 -20.656911724622603 a43.729435340949365,43.729435340949365 0 0,0 0.6813916214820965,0.31992250274998213 l -9.836744848016073 20.490624239232616" fill="#ffc612" stroke="none" /><path d="M 109.08828744355905 81.06846463323043 l 10.047120724984788 -20.92885183490258 a44.215543801292355,44.215543801292355 0 0,0 0.6832959242037221,0.3352903424851487 l -10.405887916198942 20.7528063322826" fill="#ffcd13" stroke="none" /><path d="M 109.41281617654863 81.2277094730956 l 9.704873455194976 -19.35475001431114 a42.65158000927011,42.65158000927011 0 0,0 0.6534618359881784,0.3347285329885544 l -10.036595778771911 19.184828956010087" fill="#ffb510" stroke="none" /><path d="M 109.73455568895987 81.39251694778311 l 14.175845533309456 -27.096953773766405 a51.58103170924557,51.58103170924557 0 0,0 0.7831841650320573,0.4183498575748623 l -14.640174744869825 26.84892518968979" fill="#c8ff1d" stroke="none" /><path d="M 110.05341064243156 81.56283822128135 l 11.06102679210515 -20.28505028373732 a44.10475229707991,44.10475229707991 0 0,0 0.6634108956234462,0.36918744515471114 l -11.408561776800632 20.091647441022428" fill="#ffcb12" stroke="none" /><path d="M 110.36928655335952 81.73862282372117 l 11.489984862859131 -20.23504184696535 a44.2696512800938,44.2696512800938 0 0,0 0.659413884430181,0.381975084083108 l -11.836595479754642 20.03426260549219" fill="#ffce13" stroke="none" /><line stroke="#e1ed5e" stroke-width="0.3" x1="143.23703022742887" x2="145.7803849466894" y1="26.81831364943548" y2="22.513508569990506" /><path d="M 143.74570117128098 25.957352633546492 a86.0,86.0 0 0,1 28.547481713284135,27.462654790039103" fill="none" id="id14" stroke="none" /><text fill="#e1ed5e" style="font-size:6.75px; font-family:Arial;" text-anchor="middle"><textPath startOffset="19.985693538727396" xlink:href="#id14">February</textPath></text><path d="M 110.68208982089419 81.91981866633111 l 25.778037679131995 -43.631124946470514 a71.67723641519208,71.67723641519208 0 0,0 1.0568567325157137,0.6367443560900258 l -26.525256477865344 43.18093398092187" fill="#3bff9b" stroke="none" /><path d="M 110.99172775467656 82.1063720568725 l 12.19453330974906 -19.851696371563357 a44.2979932927993,44.2979932927993 0 0,0 0.6462884158693165,0.4047057467267528 l -12.53444087799064 19.638846283513658" fill="#ffce13" stroke="none" /><path d="M 111.2981086023043 82.29822771554956 l 12.369945690444482 -19.38111674184186 a43.99224309512773,43.99224309512773 0 0,0 0.6348142984541677,0.4129008782231072 l -12.701727014682929 19.165316939459228" fill="#ffca12" stroke="none" /><path d="M 111.60114157652 82.49532879139004 l 13.80484289788258 -20.82978079528242 a45.989066717561414,45.989066717561414 0 0,0 0.6561004046288451,0.44300192197449406 l -14.161347996917968 20.58906696100926" fill="#ffe715" stroke="none" /><path d="M 111.90073688211348 82.69761687909136 l 13.279914080832645 -19.307557466013797 a44.4336914142378,44.4336914142378 0 0,0 0.6264491610050047,0.43886767101251895 l -13.610294381421301 19.076104952237344" fill="#ffd013" stroke="none" /><path d="M 112.19680574252982 82.90503203632743 l 13.774406049058744 -19.306122856920727 a44.71625269242304,44.71625269242304 0 0,0 0.6227370254765059,0.45244493277223674 l -14.10468839088904 19.066158689331818" fill="#ffd413" stroke="none" /><path d="M 112.48926042617603 83.11751280151076 l 13.807414231278065 -18.66431526363503 a44.21640265016222,44.21640265016222 0 0,0 0.6079836348667795,0.4579206689590462 l -14.126644019903228 18.423878005170135" fill="#ffcd13" stroke="none" /><path d="M 112.77801427241765 83.33499621200491 l 15.00877538663883 -19.574348043374016 a45.66613954249257,45.66613954249257 0 0,0 0.6196839571979529,0.48367315785705806 l -15.343491898996211 19.313096496293735" fill="#ffe215" stroke="none" /><path d="M 113.06298171725822 83.55741782278167 l 16.194542825009478 -20.384327788723954 a47.03428579218584,47.03428579218584 0 0,0 0.6295798993871371,0.5090764942904865 l -16.543026122961106 20.102545197169338" fill="#fff617" stroke="none" /><path d="M 113.34407831869373 83.78471172551755 l 13.311151986446218 -16.175277270615155 a41.94818278485154,41.94818278485154 0 0,0 0.5536010808134718,0.4636249844665025 l -13.587610604218808 15.943751128754833" fill="#ffab0f" stroke="none" /><path d="M 113.6212207817346 84.01681056812373 l 14.760252985502094 -17.319733914455664 a43.75605965591515,43.75605965591515 0 0,0 0.5690500589910744,0.49347460364466295 l -15.056196843139933 17.063094317391332" fill="#ffc612" stroke="none" /><path d="M 113.89432698308785 84.25364557470407 l 15.736953327819947 -17.834591410999227 a44.78496060201216,44.78496060201216 0 0,0 0.5736505868041785,0.5150291608387572 l -16.041614902220115 17.561063241391174" fill="#ffd513" stroke="none" /><path d="M 114.16331599549186 84.49514656593476 l 16.223497876124107 -17.760174018375245 a45.054639147149445,45.054639147149445 0 0,0 0.5681006306968209,0.5279876223893071 l -16.526806390615775 17.478281809911298" fill="#ffd914" stroke="none" /><path d="M 114.42810811169701 84.74124197986012 l 15.962105101133504 -16.8810697386429 a44.23272077868964,44.23272077868964 0 0,0 0.5487316639743721,0.5278794259838184 l -16.250320008720294 16.60380722589678" fill="#ffcd13" stroke="none" /><path d="M 114.68862486808459 84.99185889309783 l 36.420396701367245 -37.212636157053126 a73.06943043324154,73.06943043324154 0 0,0 0.8913224847219433,0.8874948627111944 l -37.05555498625651 36.58020544369182" fill="#3dffad" stroke="none" /><path d="M 114.94478906791727 85.2469230424477 l 16.552055760351205 -16.339725594547282 a44.25848624478556,44.25848624478556 0 0,0 0.5305448867722339,0.5467731420309591 l -16.83086491082655 16.052388256966207" fill="#ffce13" stroke="none" /><path d="M 115.19652480421416 85.50635884689758 l 17.067656740191232 -16.278227772711716 a44.585707664203724,44.585707664203724 0 0,0 0.5249068527458639,0.5599340324373824 l -17.34533091490756 15.982024323396281" fill="#ffd213" stroke="none" /><path d="M 115.4437574822437 85.77008943001954 l 17.620713781373937 -16.235762674754547 a44.9601657714644,44.9601657714644 0 0,0 0.5195176258763371,0.5736643382077578 l -17.897575047866308 15.930045549277242" fill="#ffd814" stroke="none" /><path d="M 115.68641384162765 86.03803664274999 l 17.311852558128628 -15.40871313883599 a44.17603675327862,44.17603675327862 0 0,0 0.5006788658173491,0.5723624947225691 l -17.574523287523824 15.108435087910472" fill="#ffcc13" stroke="none" /><path d="M 115.9244219780498 86.31012108654704 l 43.116033544707776 -37.06591543913051 a77.8583717316029,77.8583717316029 0 0,0 0.864930084578934,1.0238044071491572 l -43.747674242773826 36.318252082352245" fill="#44ffe7" stroke="none" /><path d="M 116.15771136456269 86.58626213691792 l 37.415782718307284 -31.061670183448886 a69.62888186056657,69.62888186056657 0 0,0 0.7576335476272877,0.9287691457920022 l -37.94491475801098 30.413016868048786" fill="#38ff80" stroke="none" /><path d="M 116.38621287248628 86.86637796730983 l 16.973046326913053 -13.603971639799218 a42.75206532704419,42.75206532704419 0 0,0 0.4553011884082719,0.5781862727189112 l -17.20470159591529 13.309792973127268" fill="#ffb711" stroke="none" /><path d="M 116.60985879189232 87.15038557335679 l 18.350685391560617 -14.196341745017572 a44.200943370504675,44.200943370504675 0 0,0 0.4603718942819447,0.6057954486881689 l -18.592333226066675 13.878361520448369" fill="#ffcd13" stroke="none" /><path d="M 116.82858285166822 87.43820079747576 l 18.43541266726223 -13.7612272039213 a44.00512582817569,44.00512582817569 0 0,0 0.4478828871677817,0.6109117547559418 l -18.669558166943638 13.441853005493865" fill="#ffca12" stroke="none" /><path d="M 117.04232023915458 87.72973835380427 l 19.9108962948958 -14.33560123974999 a45.53473566540338,45.53473566540338 0 0,0 0.45250117590170136,0.640030822991611 l -20.154710090601384 13.990743916426585" fill="#ffe115" stroke="none" /><path d="M 117.2510076193507 88.02491185347247 l 18.698508122351264 -12.979895894460526 a43.7620715980042,43.7620715980042 0 0,0 0.42423271947651675,0.6225091682637056 l -18.919165307496513 12.656108702926414" fill="#ffc612" stroke="none" /><path d="M 117.45458315368197 88.32363383020206 l 20.764467436307534 -13.890536541173583 a45.9821959266025,45.9821959266025 0 0,0 0.4344296374032884,0.6616661422694599 l -21.000493709068746 13.53105233492645" fill="#ffe715" stroke="none" /><path d="M 117.65298651832404 88.62581576622439 l 19.487978777808472 -12.556507689654488 a44.18290754423754,44.18290754423754 0 0,0 0.4064246883410983,0.6428662538555964 l -19.701231062395525 12.219193788084686" fill="#ffcc13" stroke="none" /><line stroke="#e1ed5e" stroke-width="0.3" x1="172.23445277983987" x2="176.4835382374775" y1="55.19839476539836" y2="52.563006222186495" /><path d="M 173.08426987136738 54.67131705675599 a86.0,86.0 0 0,1 12.851231095245387,41.99856678651699" fill="none" id="id15" stroke="none" /><text fill="#e1ed5e" style="font-size:6.75px; font-family:Arial;" text-anchor="middle"><textPath startOffset="22.20632615414155" xlink:href="#id15">March</textPath></text><path d="M 117.84615892207809 88.93136811851018 l 20.881421875861736 -12.951177500726216 a45.57166616680753,45.57166616680753 0 0,0 0.40772362469130147,0.6701904352837466 l -21.101261298839262 12.589819292235388" fill="#ffe115" stroke="none" /><path d="M 118.03404312379186 89.2402003453031 l 19.795062984954455 -11.81049143601208 a44.050644818278485,44.050644818278485 0 0,0 0.38290566880574023,0.6545099086851948 l -19.995428328230524 11.468002114972991" fill="#ffca12" stroke="none" /><path d="M 118.21658344932153 89.55222093294921 l 18.96507409081695 -10.877061807025315 a42.86285683125664,42.86285683125664 0 0,0 0.3615632171444549,0.6431806189920493 l -19.14949494925384 10.548997678098472" fill="#ffb911" stroke="none" /><path d="M 118.3937258080291 89.86733742301442 l 22.162290646604628 -12.208674599090944 a46.30254655506175,46.30254655506175 0 0,0 0.37856058233638457,0.7014152656809188 l -22.369159328159476 11.825378350077566" fill="#ffec16" stroke="none" /><path d="M 118.56541770881063 90.18545643968196 l 21.245424363098007 -11.231319765572128 a45.031450227663115,45.031450227663115 0 0,0 0.3563715351884448,0.6883963752026412 l -21.43560533144657 10.863950668109142" fill="#ffd914" stroke="none" /><path d="M 118.73160827565052 90.50648371742162 l 22.226196972276156 -11.264636743999516 a45.9177822613627,45.9177822613627 0 0,0 0.3512491403654062,0.7080968334635865 l -22.41680612559497 10.880380322036979" fill="#ffe615" stroke="none" /><path d="M 118.89224826269711 90.83032412892265 l 20.160677014963973 -9.785329464133698 a43.40994356135998,43.40994356135998 0 0,0 0.3204931454752704,0.6750403003132474 l -20.326128354281 9.43684674817991" fill="#ffc111" stroke="none" /><path d="M 119.04729006885535 91.15688171328212 l 21.65741848410379 -10.054927118112053 a44.87771627995746,44.87771627995746 0 0,0 0.319267944390568,0.7034645948948691 l -21.827288745457704 9.68064051437512" fill="#ffd714" stroke="none" /><path d="M 119.196687751892 91.48605970444005 l 22.98059739832719 -10.19214547501166 a46.1393652697876,46.1393652697876 0 0,0 0.3157454967252593,0.7287841394390352 l -23.15263360489513 9.795062190986023" fill="#ffe915" stroke="none" /><path d="M 119.34039704204932 91.81776055985345 l 21.017000700887174 -8.891551278626954 a43.82047332115494,43.82047332115494 0 0,0 0.28791785660482616,0.6972159272081174 l -21.166940244378196 8.528460780965533" fill="#ffc712" stroke="none" /><path d="M 119.47837535516314 92.15188598940014 l 22.641480396888223 -9.122573945903516 a45.410202579273104,45.410202579273104 0 0,0 0.28588198486469274,0.7275384688419264 l -22.795155931634618 8.731486472165805" fill="#ffdf14" stroke="none" /><path d="M 119.61058180528143 92.48833698450437 l 21.999547083412065 -8.426735413817047 a44.55822450036808,44.55822450036808 0 0,0 0.2681883391124279,0.7186114139679697 l -22.14134001102612 8.046800862819746" fill="#ffd213" stroke="none" /><path d="M 119.7369772167798 92.82701384747503 l 23.687924315113836 -8.608874156773906 a46.2037789350274,46.2037789350274 0 0,0 0.2652249145505796,0.7498265490055869 l -23.832602310474226 8.199849981341705" fill="#ffea16" stroke="none" /><path d="M 119.85752413597 93.16781622104841 l 25.641203324085147 -8.822117612652546 a48.11643536821441,48.11643536821441 0 0,0 0.26272193777977054,0.7855051540820939 l -25.789262555636686 8.379439355648138" fill="#f8ff18" stroke="none" /><path d="M 119.97218684219823 93.5106431181261 l 25.065565516258285 -8.144295933448655 a47.35549526951495,47.35549526951495 0 0,0 0.24522144876192398,0.7774190053790369 l -25.202042448788415 7.711626761643198" fill="#fffb17" stroke="none" /><path d="M 120.08093135843002 93.85539295169968 l 23.837106334150747 -7.293967046524388 a45.92808844780107,45.92808844780107 0 0,0 0.2248160309221953,0.7579678942340016 l -23.95912826218464 6.882569765543857" fill="#ffe615" stroke="none" /><path d="M 120.18372546131832 94.20196356495316 l 24.409006811810507 -7.011803203001959 a46.396161081876926,46.396161081876926 0 0,0 0.213893437507606,0.7694884985510126 l -24.526087019884475 6.590603401031994" fill="#ffed16" stroke="none" /><path d="M 120.28053869075195 94.5502522615342 l 48.499777220180064 -13.032767780586566 a71.22032881642446,71.22032881642446 0 0,0 0.3079555762825964,1.1866784584025298 l -48.716929128332964 12.195992896635186" fill="#3aff95" stroke="none" /><path d="M 120.45610955862082 95.25157060432595 l 24.535117036249137 -5.695279966474888 a46.187460806499985,46.187460806499985 0 0,0 0.1731053531235688,0.7759973555042203 l -24.629516776374743 5.272104441420703" fill="#ffea16" stroke="none" /><path d="M 120.53481517161879 95.60439243477599 l 24.556452093333696 -5.256464482120276 a46.11274095482182,46.11274095482182 0 0,0 0.1594637959727866,0.7776021015777544 l -24.643295185221483 4.8329867243791105" fill="#ffe915" stroke="none" /><path d="M 120.6074358757038 95.95851677861258 l 24.701447967977312 -4.844391515212974 a46.172001526842436,46.172001526842436 0 0,0 0.14624272653289505,0.7812344928532924 l -24.781176418420067 4.418478944897119" fill="#ffea16" stroke="none" /><path d="M 120.67395015179393 96.31383870115 l 24.86234578401317 -4.432951427025821 a46.25445101834937,46.25445101834937 0 0,0 0.13301048540010205,0.7850354141232705 l -24.93496813093349 4.004330224586712" fill="#ffeb16" stroke="none" /><path d="M 120.73433829027371 96.67025291283417 l 24.508432202694777 -3.935832414589531 a45.82245003680781,45.82245003680781 0 0,0 0.11836180298423617,0.7798563959773609 l -24.57254989911831 3.5133769062200884" fill="#ffe515" stroke="none" /><path d="M 120.78858239683441 97.02765380044208 l 21.04931113425961 -3.0096251278180386 a42.26338032009161,42.26338032009161 0 0,0 0.09677106757763393,0.7210568557635266 l -21.09799820089508 2.646849929989848" fill="#ffaf10" stroke="none" /><path d="M 120.83666639777658 97.38593545837742 l 24.072919911829914 -3.0200688130011795 a45.26162172478665,45.26162172478665 0 0,0 0.0903285042367095,0.7738794616122155 l -24.121338769070213 2.605245613064111" fill="#ffdc14" stroke="none" /><path d="M 120.87857604477298 97.74499172005257 l 26.741905468148996 -2.8882821377727295 a47.89742890639911,47.89742890639911 0 0,0 0.08147780156988964,0.8204703425703083 l -26.787660395401115 2.427536264497986" fill="#fbff18" stroke="none" /><path d="M 120.91429891909075 98.10471618934814 l 21.822389030840686 -1.9775762410159372 a42.91181121683889,42.91181121683889 0 0,0 0.060333017924645876,0.7362156366111721 l -21.85319653258483 1.6016466871969963" fill="#ffb911" stroke="none" /><path d="M 120.94382443527127 98.46500227214037 l 25.72223932401216 -1.8852134212568414 a46.79123156201434,46.79123156201434 0 0,0 0.05195923172389114,0.803786317068284 l -25.75087914674047 1.4421680399355221" fill="#fff316" stroke="none" /><path d="M 120.96714384426684 98.82574320788733 l 23.349007268950924 -1.3076521331802977 a44.385595877525425,44.385595877525425 0 0,0 0.03615606627955494,0.7631974141568761 l -23.368056943463976 0.9055436124004217" fill="#ffcf13" stroke="none" /><path d="M 120.98425023603335 99.18683210126433 l 24.86476601502008 -0.9635431004472224 a45.88342830656815,45.88342830656815 0 0,0 0.02379013270592468,0.7894786850308521 l -24.87766784218165 0.5353942679913712" fill="#ffe615" stroke="none" /><line stroke="#e1ed5e" stroke-width="0.3" x1="184.98032266829074" x2="189.97916517819016" y1="98.17113171792111" y2="98.06355123074" /><path d="M 185.9800911702706 98.14961562048488 a86.0,86.0 0 0,1 -9.607161424134198,41.387399972396054" fill="none" id="id16" stroke="none" /><text fill="#e1ed5e" style="font-size:6.75px; font-family:Arial;" text-anchor="middle"><textPath startOffset="21.466115282336823" xlink:href="#id16">April</textPath></text><path d="M 120.99513854157772 99.54816195383933 l 23.879057836298333 -0.513903102641771 a44.884587070916375,44.884587070916375 0 0,0 0.009975049923059205,0.7725786094316385 l -23.88436589333911 0.10278823514966982" fill="#ffd714" stroke="none" /><path d="M 120.99980553446 99.90962569577887 l 48.846577137132755 -0.2102150619970324 a69.84702947351201,69.84702947351201 0 0,0 -0.005174343479624074,1.20233519668107 l -48.84295849636363 -0.6306296128877222" fill="#38ff83" stroke="none" /><path d="M 120.99824983174949 100.27111621757518 l 23.06074662862158 0.2977458812285539 a44.06266870245658,44.06266870245658 0 0,0 -0.01631984167138053,0.7583189148825702 l -23.05220472426519 -0.6946546119012389" fill="#ffcb12" stroke="none" /><path d="M 120.9904718944345 100.63252640178507 l 24.634345017968716 0.7423307914615853 a45.64552716961583,45.64552716961583 0 0,0 -0.030425715488432262,0.7851525231288385 l -24.61791716962908 -1.1662605616044301" fill="#ffe215" stroke="none" /><path d="M 120.9764740272857 100.99374915477107 l 24.993671550737865 1.184061722950358 a46.02170297461625,46.02170297461625 0 0,0 -0.044298407404154375,0.7909778221880565 l -24.969586792446183 -1.6141112614738378" fill="#ffe815" stroke="none" /><path d="M 120.95626037817324 101.35467743843564 l 25.572099990602613 1.6530595767349106 a46.625473730130594,46.625473730130594 0 0,0 -0.05866692713597955,0.8004636096798199 l -25.539856504802295 -2.0929963229115005" fill="#fff016" stroke="none" /><path d="M 120.92983693683757 101.71520430193887 l 21.40034026465671 1.7537621432821808 a42.47208059546855,42.47208059546855 0 0,0 -0.06598422744665504,0.728130451496847 l -21.36698144093298 -2.1218739833275984" fill="#ffb310" stroke="none" /><path d="M 120.89721153311464 102.0752229133903 l 24.653946387208258 2.448290020281238 a45.77521334896529,45.77521334896529 0 0,0 -0.08461373478595999,0.7834180973393581 l -24.608150350921246 -2.8723044395053874" fill="#ffe415" stroke="none" /><path d="M 120.8583938346157 102.4346265915055 l 23.200605438832643 2.708013444768192 a44.35811271368978,44.35811271368978 0 0,0 -0.09504991070353515,0.757641308748529 l -23.150554018882257 -3.106972507804116" fill="#ffcf13" stroke="none" /><path d="M 120.81339534386255 102.79330883721812 l 24.52526978681603 3.2914693493713343 a45.74515363852005,45.74515363852005 0 0,0 -0.11145686653839287,0.779529064976012 l -24.464978869261035 -3.7131438863277557" fill="#ffe415" stroke="none" /><path d="M 120.76222939487914 103.15116336523771 l 24.88359731235925 3.7766792166054035 a46.16856613136298,46.16856613136298 0 0,0 -0.12601434353831253,0.7846914375031564 l -24.81490121445965 -4.2044498838017645" fill="#ffea16" stroke="none" /><path d="M 120.70491114924044 103.5080841355445 l 23.94187056603419 4.056530148937419 a45.283092946533245,45.283092946533245 0 0,0 -0.13682730234965354,0.7674001756417161 l -23.86849682134535 -4.468049075312354" fill="#ffdd14" stroke="none" /><path d="M 120.64145759157962 103.86396538481128 l 24.997172645428922 4.679330875329778 a46.43137388554135,46.43137388554135 0 0,0 -0.1538206568213862,0.7843282152034138 l -24.91292205563187 -5.108922817601137" fill="#ffee16" stroke="none" /><path d="M 120.5718875245553 104.21870165774334 l 20.36295473008201 4.175855558893666 a41.786719197317126,41.786719197317126 0 0,0 -0.15056344174365563,0.7033822746756513 l -20.28805724961391 -4.525751652985487" fill="#ffa80f" stroke="none" /><path d="M 120.49622156327973 104.57218783832717 l 50.353410692240914 11.232570416677191 a72.59105161272731,72.59105161272731 0 0,0 -0.2825500703490648,1.2172183080413947 l -50.1526000559613 -12.097657382067151" fill="#3cffa7" stroke="none" /><path d="M 120.41448212921028 104.9243191809786 l 22.759445272607046 5.4899640458656656 a44.412220192491205,44.412220192491205 0 0,0 -0.18566144952081723,0.7416252005742615 l -22.661572508791167 -5.880917085837323" fill="#ffd013" stroke="none" /><path d="M 120.32669344350535 105.2749913415812 l 23.997491328366635 6.22760210993639 a45.792390326362565,45.792390326362565 0 0,0 -0.2045653440678221,0.7612637454522613 l -23.886737907957038 -6.639756788564199" fill="#ffe415" stroke="none" /><path d="M 120.23288151984713 105.62410040840565 l 22.696000531383437 6.30876950139394 a44.55650680262835,44.55650680262835 0 0,0 -0.21176511683509092,0.7371821526763076 l -22.584042777662248 -6.6985091295748305" fill="#ffd213" stroke="none" /><path d="M 120.13307415673323 105.97154293290107 l 23.512830886645876 6.973991056735411 a45.52528832783488,45.52528832783488 0 0,0 -0.22930269900114192,0.7493744877011038 l -23.3893014151386 -7.377692516988572" fill="#ffe015" stroke="none" /><path d="M 120.02730092923936 106.31721596034902 l 21.295764000336312 6.717327547335162 a43.330070616462635,43.330070616462635 0 0,0 -0.23049069770819525,0.7093774258085556 l -21.17698105161187 -7.082903873121514" fill="#ffc011" stroke="none" /><path d="M 119.9155931802556 106.66101706037122 l 13.653451283391142 4.566566062505227 a35.39688360552935,35.39688360552935 0 0,0 -0.1982380032402611,0.5761724305686075 l -13.57282244920765 -4.800911196163134" fill="#ff4206" stroke="none" /><path d="M 119.79798401119884 107.00284435728193 l 45.66162078390601 16.1512012167526 a69.43392316710745,69.43392316710745 0 0,0 -0.40825737973166193,1.1233489694538945 l -45.37683914316912 -16.93479798321263" fill="#38ff7e" stroke="none" /><path d="M 119.67450827220406 107.3425965602758 l 21.87090585435471 8.162299960664296 a44.34437113177195,44.34437113177195 0 0,0 -0.27304670738888925,0.7128387922709942 l -21.727164867372316 -8.537562319768435" fill="#ffcf13" stroke="none" /><path d="M 119.54520255179757 107.68017299344265 l 19.38266780854435 7.616305916991466 a41.825367396461,41.825367396461 0 0,0 -0.2690713234755225,0.6678129584876166 l -19.248693870811437 -7.948818243321896" fill="#ffa90f" stroke="none" /><path d="M 119.41010516605496 108.01547362559984 l 23.431363287064546 9.67606681326841 a46.350642091774134,46.350642091774134 0 0,0 -0.31087821236823104,0.734824262099133 l -23.261334093504004 -10.077965601033705" fill="#ffec16" stroke="none" /><path d="M 119.26925614724726 108.34839909993367 l 23.332260002926215 10.108694228742927 a46.42793849006189,46.42793849006189 0 0,0 -0.32402039539365024,0.7305804527264822 l -23.154798522801293 -10.508823017962095" fill="#ffee16" stroke="none" /><path d="M 119.12269723197855 108.67885076344098 l 21.568756998694127 9.78899685926898 a44.68619298197781,44.68619298197781 0 0,0 -0.3239225166024196,0.697700283261718 l -21.397059865251876 -10.158817209809529" fill="#ffd413" stroke="none" /><path d="M 118.97047184881838 109.00673069616215 l 42.905841570331006 20.370677302907517 a68.49606020121601,68.49606020121601 0 0,0 -0.5148514303564011,1.0607464404906097 l -42.54883688335989 -21.1062126993634" fill="#36ff71" stroke="none" /><path d="M 118.81262510543309 109.33194174019688 l 19.450962808727017 9.648587090025789 a42.71255827903045,42.71255827903045 0 0,0 -0.3323877662281268,0.6558325964036469 l -19.281996372712623 -9.98197389813213" fill="#ffb610" stroke="none" /><path d="M 118.64920377521936 109.65438752849418 l 21.423677707097223 11.090687268091983 a45.12420590560842,45.12420590560842 0 0,0 -0.3630295907664767,0.6867151744568588 l -21.229595608105853 -11.457817457634977" fill="#ffda14" stroke="none" /><line stroke="#e1ed5e" stroke-width="0.3" x1="174.80103733775053" x2="179.2010983576182" y1="140.37084112569926" y2="142.7455964860345" /><path d="M 175.68104954172406 140.8457921977663 a86.0,86.0 0 0,1 -30.038265399797805,32.042727171017184" fill="none" id="id17" stroke="none" /><text fill="#e1ed5e" style="font-size:6.75px; font-family:Arial;" text-anchor="middle"><textPath startOffset="22.206326154141568" xlink:href="#id17">May</textPath></text><path d="M 118.48025628344425 109.97397251340804 l 22.108588085311414 11.93221817333256 a46.12304714126019,46.12304714126019 0 0,0 -0.3830927375912328,0.695424595535753 l -21.899918938268673 -12.31101328726612" fill="#ffe915" stroke="none" /><path d="M 118.30583269289576 110.29060199501025 l 20.168259137085318 11.337562797267262 a44.13652970526488,44.13652970526488 0 0,0 -0.3779936554406234,0.6590637994407625 l -19.970113485492316 -11.68304644256634" fill="#ffcc13" stroke="none" /><path d="M 118.12598468904814 110.60418214915192 l 20.57872787992378 12.03910201735928 a44.84164462742318,44.84164462742318 0 0,0 -0.39550143572107693,0.6628831554686039 l -20.368445568504477 -12.391547266713987" fill="#ffd614" stroke="none" /><path d="M 117.94076556474637 110.91462005526583 l 20.342031157824863 12.375477536829202 a44.81072606810808,44.81072606810808 0 0,0 -0.40657275419653244,0.6555247353480274 l -20.125993763960366 -12.723798603542503" fill="#ffd614" stroke="none" /><path d="M 117.75023020441432 111.22182372390056 l 19.937249052568443 12.604472833923362 a44.58742536194345,44.58742536194345 0 0,0 -0.41571433525748996,0.6451978801242385 l -19.7173298539339 -12.945792313969053" fill="#ffd313" stroke="none" /><path d="M 117.55443506779139 111.5257021239791 l 21.2759638152247 13.969143432292196 a46.45198625841808,46.45198625841808 0 0,0 -0.4446049993069473,0.6646241491654168 l -21.03235571050703 -14.33330449566342" fill="#ffee16" stroke="none" /><path d="M 116.93607887273984 112.41649034213515 l 19.524260078446602 14.313985458084305 a45.20923194372495,45.20923194372495 0 0,0 -0.46552319281899357,0.6236443914939608 l -19.274975618932515 -14.64794272908758" fill="#ffdc14" stroke="none" /><path d="M 116.498646956653 112.99209946851258 l 12.9309950491029 10.182700093297226 a37.458979742072685,37.458979742072685 0 0,0 -0.40327639773251056,0.503149312752137 l -12.753800739315535 -10.403777239627614" fill="#ff6409" stroke="none" /><path d="M 116.27256486870786 113.27417163493432 l 16.17384780669931 13.19364424205124 a41.87260408430352,41.87260408430352 0 0,0 -0.460407227520935,0.5545901648276658 l -15.94434457928483 -13.470095663992677" fill="#ffa90f" stroke="none" /><path d="M 115.80600337817218 113.82643327865902 l 16.81421410705496 14.708374022324612 a43.33951795403114,43.33951795403114 0 0,0 -0.4960128381313495,0.5572756818365657 l -16.558542419275273 -14.995623873902046" fill="#ffc011" stroke="none" /><path d="M 115.56566222782051 114.09645910891815 l 17.296995735424566 15.664376466794527 a44.335782643073316,44.335782643073316 0 0,0 -0.5171528196543682,0.5612672468124666 l -17.024796507774475 -15.959794968408328" fill="#ffcf13" stroke="none" /><path d="M 115.32070863581623 114.36230785411682 l 17.161390878194954 16.087844554478515 a44.523011696703655,44.523011696703655 0 0,0 -0.5289618919621569,0.5546144289605462 l -16.881922434853834 -16.380866100021567" fill="#ffd213" stroke="none" /><path d="M 115.07121518719521 114.62390073753431 l 16.70502252106351 16.209216584861966 a44.276522071052696,44.276522071052696 0 0,0 -0.535449422375206,0.5424074379168198 l -16.42353247363277 -16.49436451675945" fill="#ffce13" stroke="none" /><path d="M 114.81725581225074 114.88116024355365 l 14.697673847520084 14.76106254112183 a41.83052048968018,41.83052048968018 0 0,0 -0.5146150933644853,0.5036591809767085 l -14.441408801779804 -15.011871825021112" fill="#ffa90f" stroke="none" /><path d="M 114.55890576462653 115.13401014063108 l 15.898410835999115 16.52642820152918 a43.93212367423726,43.93212367423726 0 0,0 -0.5494949813492084,0.5195818026130972 l -15.6115800202591 -16.797644640888198" fill="#ffc912" stroke="none" /><path d="M 114.29624159901734 115.38237550388516 l 14.23348578754307 15.314851920818782 a41.90781688796794,41.90781688796794 0 0,0 -0.532629295631372,0.4865442330405495 l -13.967756942444836 -15.557588920445916" fill="#ffaa0f" stroke="none" /><path d="M 113.75828350139079 115.86535959552629 l 15.34035293638045 17.689722386761453 a44.4147967391008,44.4147967391008 0 0,0 -0.5819068539876102,0.4959136451678349 l -15.033580605815791 -17.951160422152235" fill="#ffd013" stroke="none" /><path d="M 113.48314897796784 116.09983520530334 l 13.3919795544453 15.990972453962844 a41.85800365351582,41.85800365351582 0 0,0 -0.5563723418657962,0.45785655971936406 l -13.114737084034813 -16.219124132539385" fill="#ffa90f" stroke="none" /><path d="M 113.20401910651253 116.32954008644616 l 32.54707727875576 40.25129006803432 a72.76368023556998,72.76368023556998 0 0,0 -0.9807244996661263,0.7791468560550092 l -31.849395286372282 -40.80557083809446" fill="#3dffa9" stroke="none" /><path d="M 112.92097659922987 116.55440617244103 l 12.862144004086566 16.479029619538736 a41.90438149248848,41.90438149248848 0 0,0 -0.5724363428782799,0.4389197777811753 l -12.576578932714792 -16.697988739147284" fill="#ffaa0f" stroke="none" /><path d="M 112.63410532772338 116.77436683061366 l 12.510440801926478 16.610176801652997 a41.79444883714589,41.79444883714589 0 0,0 -0.5783854754831883,0.4278757475186236 l -12.222670356024725 -16.82306249791139" fill="#ffa80f" stroke="none" /><path d="M 112.34349029814194 116.9893568818739 l 12.234281186116771 16.839043434531742 a41.814202361152766,41.814202361152766 0 0,0 -0.5859417648897097,0.4180538915300485 l -11.942612093378177 -17.04714158790601" fill="#ffa90f" stroke="none" /><path d="M 112.04921762599082 117.19931262002967 l 9.623079387641386 13.736190671699134 a37.77160073070316,37.77160073070316 0 0,0 -0.5357148206863432,0.36846953857660397 l -9.38520768233216 -13.899800999640833" fill="#ff6909" stroke="none" /><path d="M 111.45004920935366 117.60387380957326 l 12.683808635570799 19.50071677097778 a44.262780489134876,44.262780489134876 0 0,0 -0.6422702241448317,0.4099272450131317 l -12.346256609379036 -19.716158444814717" fill="#ffce13" stroke="none" /><path d="M 111.1453310114006 117.79835938074945 l 9.731235042222295 15.540141277351749 a39.33556452272541,39.33556452272541 0 0,0 -0.5769605740668654,0.35441630816743486 l -9.462295268223121 -15.705346052347561" fill="#ff820c" stroke="none" /><line stroke="#e1ed5e" stroke-width="0.3" x1="143.8653032363475" x2="146.44561519142675" y1="172.8068346515853" y2="177.08958963109032" /><path d="M 144.38136562736335 173.6633856474863 a86.0,86.0 0 0,1 -40.68145358897372,12.25698825130547" fill="none" id="id18" stroke="none" /><text fill="#e1ed5e" style="font-size:6.75px; font-family:Arial;" text-anchor="middle"><textPath startOffset="21.466115282336833" xlink:href="#id18">June</textPath></text><path d="M 110.8373102113329 117.98757091392108 l 32.51193063399873 53.96271274176323 a84.0,84.0 0 0,0 -1.2449285158864716,0.735525710825002 l -31.578234247083873 -54.514357024881974" fill="#4dd2ff" stroke="none" /><path d="M 110.5260780823613 118.17145234162733 l 10.924569218968935 18.85937833274845 a42.79500777053739,42.79500777053739 0 0,0 -0.6406030220135854,0.36375111461119997 l -10.59831743003415 -19.044632613154274" fill="#ffb811" stroke="none" /><path d="M 110.21172684928248 118.3499491758327 l 11.169224153715309 20.070522701903222 a43.96905417564141,43.96905417564141 0 0,0 -0.6645130847171486,0.3623455170655164 l -10.822088257129511 -20.25980887072851" fill="#ffc912" stroke="none" /><path d="M 109.89434966115114 118.52300852407294 l 14.06458725519931 26.330024563263184 a50.85101016986121,50.85101016986121 0 0,0 -0.7756210082440114,0.40576825340056 l -13.609275344428802 -26.56822223560846" fill="#d2ff1c" stroke="none" /><path d="M 109.57404056367764 118.69057910512821 l 7.336956624677241 14.323311800524536 a37.09311012351064,37.09311012351064 0 0,0 -0.5707854089669286,0.28620365336673587 l -7.089317308027552 -14.447483294800573" fill="#ff5e08" stroke="none" /><path d="M 109.2508944713604 118.85261126421891 l 10.318819524983645 21.028960368363272 a44.424244076669304,44.424244076669304 0 0,0 -0.6893951608691535,0.3309515716921268 l -9.95531169611426 -21.20346621655496" fill="#ffd013" stroke="none" /><path d="M 108.92500713936063 119.00905698771935 l 8.81136702882592 18.767018936262982 a41.732611718515685,41.732611718515685 0 0,0 -0.6528808842735255,0.2997055921847567 l -8.487018148784975 -18.91591159878181" fill="#ffa70f" stroke="none" /><path d="M 108.59647513512805 119.15986991738527 l 8.904337558172207 19.846035338125393 a42.75206532704419,42.75206532704419 0 0,0 -0.6740154735935918,0.2954685761345343 l -8.561401409920862 -19.996368467554383" fill="#ffb711" stroke="none" /><path d="M 108.2653958097858 119.30500536409082 l 9.608294455545094 22.441535804547158 a45.41192027701284,45.41192027701284 0 0,0 -0.721246261495702,0.30148099580000726 l -9.22057673455193 -22.603601843367137" fill="#ffdf14" stroke="none" /><path d="M 107.93186726928326 119.44442032107085 l 5.878020350059139 14.40955760631201 a36.56234152193473,36.56234152193473 0 0,0 -0.5847866632274872,0.23269868191950427 l -5.629112610789786 -14.508603132637582" fill="#ff5507" stroke="none" /><path d="M 107.59598834532513 119.57807347666477 l 7.5312680476477265 19.41126190643118 a41.82107315211168,41.82107315211168 0 0,0 -0.6733785824996152,0.25461416118647984 l -7.196019244387837 -19.53802431772429" fill="#ffa90f" stroke="none" /><path d="M 107.2578585660854 119.70592522655815 l 7.258650109403131 19.708074358191215 a42.00229026365297,42.00229026365297 0 0,0 -0.6805979897844402,0.2440382246200781 l -6.918332558988956 -19.830100123851253" fill="#ffab0f" stroke="none" /><path d="M 106.91757812671514 119.82793768551818 l 6.679271832222553 19.144877477059147 a41.27656296861794,41.27656296861794 0 0,0 -0.6728674678323975,0.22827317782318243 l -6.3487346314529285 -19.257013641780453" fill="#ffa00e" stroke="none" /><path d="M 106.57524785965236 119.94407469862006 l 4.588439112901066 13.917676469553971 a35.65453826648853,35.65453826648853 0 0,0 -0.5845284036090602,0.18714753603702813 l -4.348189364201065 -13.994596852250707" fill="#ff4606" stroke="none" /><path d="M 106.2309692047433 120.05430185196036 l 6.347342242484921 20.428847119255746 a42.39220765057121,42.39220765057121 0 0,0 -0.6987144741232555,0.21051693941110736 l -5.994752793921419 -20.53507942777258" fill="#ffb110" stroke="none" /><path d="M 105.88484417918355 120.15858648285463 l 5.8522727210933505 20.04701266122201 a41.88376911961174,41.88376911961174 0 0,0 -0.6938122780483678,0.19607828007999545 l -5.506329274940377 -20.144779734640526" fill="#ffaa0f" stroke="none" /><path d="M 105.53697534728816 120.25689768951611 l 6.540747441083151 23.92917494058879 a45.80699075715026,45.80699075715026 0 0,0 -0.7623800502699722,0.20135150044074956 l -6.127876948001681 -24.038217790333125" fill="#ffe515" stroke="none" /><path d="M 105.18746579009965 120.34920634021253 l 8.012235175814688 31.43011124046949 a53.43528641928184,53.43528641928184 0 0,0 -0.8932515131568852,0.219539489232621 l -7.4700303779145925 -31.56337198801614" fill="#afff20" stroke="none" /><path d="M 104.83641907484287 120.43548508189849 l 5.268936853436661 22.26301707929815 a43.87801619543583,43.87801619543583 0 0,0 -0.7364817425478477,0.1676208468251965 l -4.884934961495951 -22.350414659701034" fill="#ffc812" stroke="none" /><path d="M 104.48393922423573 120.51570834832081 l 4.49744837940867 20.577517813993833 a42.06326853341331,42.06326853341331 0 0,0 -0.70868302701479,0.14851141870695572 l -4.142573890964503 -20.65188521342733" fill="#ffac10" stroke="none" /><path d="M 104.13013068566511 120.58985236759428 l 2.910189829456776 14.508107251463386 a35.79710717888595,35.79710717888595 0 0,0 -0.6051967787215355,0.11598740302245544 l -2.660025436163536 -14.55605185283431" fill="#ff4906" stroke="none" /><path d="M 103.7750983002368 120.6578951692458 l 3.7396909927885047 20.464141156152564 a41.80303732584453,41.80303732584453 0 0,0 -0.7089616542472293,0.12326207111217762 l -3.3868803670692254 -20.52548180578575" fill="#ffa80f" stroke="none" /><path d="M 103.41894727170886 120.7198165907248 l 3.4019816419285887 20.616999931251232 a41.89579300378984,41.89579300378984 0 0,0 -0.712555939363568,0.11128658327555625 l -3.046589838956504 -20.672504821873897" fill="#ffaa0f" stroke="none" /><path d="M 103.06178313531738 120.77559828337769 l 3.116086647859951 21.144072441115167 a42.372454126564335,42.372454126564335 0 0,0 -0.7224935401890614,0.10013102129407239 l -2.751664516484059 -21.19457802790184" fill="#ffb110" stroke="none" /><path d="M 102.70371172650421 120.8252237178851 l 3.0508810799401904 23.499280786330697 a44.69649916841617,44.69649916841617 0 0,0 -0.7638260874833975,0.09248870186625317 l -2.6459275694054125 -23.548315016922302" fill="#ffd413" stroke="none" /><path d="M 102.34483914955558 120.86867818915974 l 2.3518077529664874 20.93069759976089 a42.06240968454345,42.06240968454345 0 0,0 -0.7202034014658399,0.07465202729597896 l -1.991171754895045 -20.968078995512627" fill="#ffac10" stroke="none" /><path d="M 101.98527174616119 120.90594882070398 l 1.7077277573278213 17.98326559748072 a39.06416827984841,39.06416827984841 0 0,0 -0.6699610561280014,0.057807058971828966 l -1.3979223834582781 -18.00999690873121" fill="#ff7e0b" stroke="none" /><path d="M 101.62511606390274 120.93702456842531 l 1.534969687917507 19.775632511156147 a40.835114649507865,40.835114649507865 0 0,0 -0.7012696671654464,0.048363662057169354 l -1.1943372599731303 -19.799124517729602" fill="#ff990e" stroke="none" /><path d="M 101.26447882468166 120.96189622390904 l 1.179391883565586 19.551367557971044 a40.586907326117185,40.586907326117185 0 0,0 -0.6977313243297457,0.0360647396966643 l -0.8426724908223607 -19.56877210442991" fill="#ff960d" stroke="none" /><path d="M 100.90346689309514 120.98055641714683 l 0.9149089513835165 21.246267038401694 a42.2659568667012,42.2659568667012 0 0,0 -0.7271347634731489,0.025043991476494696 l -0.5490538362357154 -21.258867828304282" fill="#ffaf10" stroke="none" /><line stroke="#e1ed5e" stroke-width="0.3" x1="102.19456741930631" x2="102.32365962044197" y1="184.97166512339345" y2="189.96999836594603" /><path d="M 102.22038585953345 185.97133177190398 a86.0,86.0 0 0,1 -42.740103519485714,-10.115201625700543" fill="none" id="id19" stroke="none" /><text fill="#e1ed5e" style="font-size:6.75px; font-family:Arial;" text-anchor="middle"><textPath startOffset="22.20632615414155" xlink:href="#id19">July</textPath></text><path d="M 100.54218724476979 120.99299961872073 l 0.5596752484386517 21.670119299963655 a42.67734547536603,42.67734547536603 0 0,0 -0.7345387134844782,0.012645750089791324 l -0.18657684506150546 -21.676542527332607" fill="#ffb610" stroke="none" /><path d="M 100.18074693466247 120.99922214144158 l 0.17935475403040044 20.83747826230868 a41.83825012950896,41.83825012950896 0 0,0 -0.7202033773856974,0.0 l 0.1793547540303861 -20.83747826230868" fill="#ffa90f" stroke="none" /><path d="M 99.81925306533755 120.99922214144158 l -0.20121322197201952 23.37700030087138 a44.37786623769665,44.37786623769665 0 0,0 -0.76380713023118,-0.013149632426975278 l 0.6035800420958674 -23.370073191165247" fill="#ffcf13" stroke="none" /><path d="M 99.45781275523022 120.99299961872073 l -0.5356163084800026 20.738578910088034 a41.745494451563644,41.745494451563644 0 0,0 -0.7181808359347168,-0.02473560010777095 l 0.8925174960893625 -20.72628651155417" fill="#ffa70f" stroke="none" /><path d="M 99.09653310690486 120.98055641714683 l -0.6469135301814349 15.022803736050113 a36.03672601357799,36.03672601357799 0 0,0 -0.6195089555340791,-0.03202153671766434 l 0.905410554129003 -15.009442392570246" fill="#ff4d07" stroke="none" /><path d="M 98.73552117531835 120.96189622390904 l -1.3515481398310196 22.405287693044517 a43.44601521389426,43.44601521389426 0 0,0 -0.7461071896140681,-0.05145592012096246 l 1.7370180902240178 -22.378703428407267" fill="#ffc112" stroke="none" /><path d="M 98.37488393609728 120.93702456842531 l -1.075774815701777 13.859640087706138 a34.90132780761785,34.90132780761785 0 0,0 -0.5985672156323195,-0.051646898004247696 l 1.3141863490756382 -13.839068937423226" fill="#ff3a05" stroke="none" /><path d="M 98.01472825383883 120.90594882070398 l -1.380358465379645 14.53589589800645 a35.60128963655697,35.60128963655697 0 0,0 -0.6095744415289995,-0.06318488326399327 l 1.630365503514238 -14.509981646286695" fill="#ff4506" stroke="none" /><path d="M 97.65516085044442 120.86867818915974 l -1.860425314285996 16.557475674252213 a37.66166807536058,37.66166807536058 0 0,0 -0.6436066606851368,-0.07793180350172439 l 2.145159398022522 -16.52299834202514" fill="#ff6709" stroke="none" /><path d="M 97.2962882734958 120.8252237178851 l -2.8582590350249566 22.0156177393303 a43.20038443711317,43.20038443711317 0 0,0 -0.736610596031791,-0.10208751659896428 l 3.236798222243579 -21.96315565723873" fill="#ffbe11" stroke="none" /><path d="M 96.93821686468263 120.77559828337769 l -3.039201889901888 20.622374210098695 a41.84512092046786,41.84512092046786 0 0,0 -0.7116941178931465,-0.11115198448613015 l 3.3937318714035514 -20.56700391826546" fill="#ffa90f" stroke="none" /><path d="M 96.58105272829116 120.7198165907248 l -3.537193982567494 21.436426110187522 a42.726299860948274,42.726299860948274 0 0,0 -0.7246197924128732,-0.12598443913941204 l 3.905662746452417 -21.372363092527102" fill="#ffb610" stroke="none" /><path d="M 96.22490169976321 120.6578951692458 l -3.954141937755183 21.637648383709994 a42.995978406085555,42.995978406085555 0 0,0 -0.7269030846350687,-0.13931270621422984 l 4.326012636961947 -21.566378479147296" fill="#ffbb11" stroke="none" /><path d="M 95.86986931433489 120.58985236759428 l -4.84524901375399 24.154916507529585 a45.63607983204733,45.63607983204733 0 0,0 -0.768877843403262,-0.16112582774440107 l 5.260318318586639 -24.067934699058643" fill="#ffe215" stroke="none" /><path d="M 95.51606077576429 120.51570834832081 l -4.691833508141508 21.466902885669004 a42.97364833546909,42.97364833546909 0 0,0 -0.7213021497776096,-0.16416602093119692 l 5.0606558073119805 -21.382960131160118" fill="#ffba11" stroke="none" /><path d="M 95.16358092515715 120.4354850818985 l -5.300980091301976 22.39841045593477 a44.017149712353785,44.017149712353785 0 0,0 -0.7358131343565777,-0.18084496618023063 l 5.685746510401764 -22.30384423144051" fill="#ffca12" stroke="none" /><path d="M 94.81253420990036 120.34920634021253 l -5.7120536957484 22.407041122660612 a44.12364697221692,44.12364697221692 0 0,0 -0.7343636340381765,-0.19395211027668804 l 6.096907772598065 -22.305397663080342" fill="#ffcc13" stroke="none" /><path d="M 94.46302465271185 120.25689768951611 l -5.838756128683277 21.360955777182575 a43.144559260572024,43.144559260572024 0 0,0 -0.7146974967912596,-0.201980651513548 l 6.205584793579151 -21.257286332330505" fill="#ffbd11" stroke="none" /><path d="M 94.11515582081647 120.15858648285463 l -6.054199716199329 20.738715392870528 a42.60434332142759,42.60434332142759 0 0,0 -0.7022109248136031,-0.21157039132228675 l 6.410285615453177 -20.631429632442515" fill="#ffb510" stroke="none" /><path d="M 93.76903079525671 120.05430185196036 l -6.38658628878901 20.555153625453165 a42.524470376530246,42.524470376530246 0 0,0 -0.697155593426285,-0.22320720556707452 l 6.739463227306235 -20.442173573226384" fill="#ffb310" stroke="none" /><path d="M 93.42475214034765 119.94407469862007 l -4.350721233524364 13.196629408715577 a34.89531586552881,34.89531586552881 0 0,0 -0.5688439428326828,-0.19298275027947878 l 4.577234909294273 -13.119783671537974" fill="#ff3a05" stroke="none" /><path d="M 92.7421414339146 119.70592522655815 l -4.249103472483266 11.536807247792073 a33.29442157210241,33.29442157210241 0 0,0 -0.5360874007661457,-0.20270238379432157 l 4.447061094009694 -11.461956613891118" fill="#ff1f03" stroke="none" /><line stroke="#e1ed5e" stroke-width="0.3" x1="58.666819895761336" x2="56.23545636021788" y1="174.27360380694188" y2="178.64263932499728" /><path d="M 58.180547188652646 175.14741091055294 a86.0,86.0 0 0,1 -31.652253787137756,-30.449443065178592" fill="none" id="id20" stroke="none" /><text fill="#e1ed5e" style="font-size:6.75px; font-family:Arial;" text-anchor="middle"><textPath startOffset="22.20632615414155" xlink:href="#id20">August</textPath></text><path d="M 89.1626897886671 117.98757091392108 l -5.413927429919217 8.985938546509226 a31.490838945388116,31.490838945388116 0 0,0 -0.4618968288933933,-0.2837347579865479 l 5.567803458744919 -8.8914153216943" fill="#ff0000" stroke="none" /><path d="M 87.95078237400918 117.19931262002967 l -11.921422395832668 17.016894957483895 a41.77727185974861,41.77727185974861 0 0,0 -0.5854242583500822,-0.4176846643546783 l 12.212573982031637 -16.809166031284995" fill="#ffa80f" stroke="none" /><path d="M 87.65650970185807 116.9893568818739 l -12.25094020320535 16.861972604465294 a41.842544373858274,41.842544373858274 0 0,0 -0.5790510605224456,-0.42836813141877983 l 12.53937623414636 -16.64859452430675" fill="#ffa90f" stroke="none" /><path d="M 87.36589467227662 116.77436683061367 l -12.524908518036417 16.629385662979875 a41.818496605502084,41.818496605502084 0 0,0 -0.5712631092243424,-0.4380201922445841 l 12.809300355754246 -16.411326128907923" fill="#ffa90f" stroke="none" /><path d="M 87.07902340077011 116.55440617244103 l -10.235286245486963 13.11348910028125 a37.635043760394794,37.635043760394794 0 0,0 -0.5072531975063852,-0.40299261841169554 l 10.459496935710705 -12.935362567864424" fill="#ff6709" stroke="none" /><path d="M 86.79598089348748 116.32954008644616 l -9.384872592581777 11.60636409039785 a35.92593450936555,35.92593450936555 0 0,0 -0.4775238800719588,-0.39296964363897724 l 9.583266601198424 -11.443099327901692" fill="#ff4b07" stroke="none" /><path d="M 86.51685102203217 116.09983520530335 l -13.420653808617711 16.025211545110267 a41.902663794748754,41.902663794748754 0 0,0 -0.5489937825390487,-0.4678644116455413 l 13.694513067733817 -15.791822743241774" fill="#ffaa0f" stroke="none" /><path d="M 86.24171649860922 115.8653595955263 l -14.334843245689317 16.530219254122247 a42.88003380865392,42.88003380865392 0 0,0 -0.5534743367361763,-0.48837675081199433 l 14.617259935332083 -16.281019361537965" fill="#ffb911" stroke="none" /><path d="M 85.97065885151581 115.62618273729859 l -15.27479565074622 17.01339682221949 a43.864274613518006,43.864274613518006 0 0,0 -0.5574949836503603,-0.5092584494861198 l 15.565390183863435 -16.747945606146796" fill="#ffc812" stroke="none" /><path d="M 85.70375840098266 115.38237550388516 l -15.775875514274025 16.974422220158242 a44.17346020666902,44.17346020666902 0 0,0 -0.5525135746311985,-0.5224360709723106 l 16.06572492329604 -16.70035151244" fill="#ffcc13" stroke="none" /><path d="M 85.44109423537348 115.13401014063109 l -9.596445355746884 9.975523138610763 a34.84206723559724,34.84206723559724 0 0,0 -0.4286404633163013,-0.4195149102136033 l 9.766735771438979 -9.80885812547459" fill="#ff3905" stroke="none" /><path d="M 85.18274418774928 114.88116024355367 l -10.25334548940544 10.297566512566236 a35.53172287809799,35.53172287809799 0 0,0 -0.42969591108675115,-0.4352796893159716 l 10.429082025547725 -10.1195463292696" fill="#ff4406" stroke="none" /><path d="M 84.9287848128048 114.62390073753433 l -16.56941979969113 16.0776385593041 a44.08757531968263,44.08757531968263 0 0,0 -0.5237886289451228,-0.5491902833696182 l 16.84371498001521 -15.790041159351981" fill="#ffcb12" stroke="none" /><path d="M 83.95833913139862 113.55231037782056 l -17.434267903136025 14.72881217030579 a43.82304986776454,43.82304986776454 0 0,0 -0.48185321482532684,-0.5804232380790945 l 17.685217117854886 -14.426527675112935" fill="#ffc712" stroke="none" /><path d="M 83.72743513129214 113.27417163493432 l -13.294858973560133 10.845139736800295 a38.15722387327207,38.15722387327207 0 0,0 -0.41079356397425987,-0.5125281334558669 l 13.479570449589254 -10.614683769766168" fill="#ff6f0a" stroke="none" /><path d="M 83.28015986056508 112.70617746262583 l -16.796881690913086 12.76472488992861 a42.09676363933801,42.09676363933801 0 0,0 -0.4334738497908025,-0.5807090590789091 l 17.014116807398974 -12.473702951340394" fill="#ffad10" stroke="none" /><path d="M 82.44556493220864 111.52570212397912 l -11.591756766007007 7.610790951840396 a34.86697385282329,34.86697385282329 0 0,0 -0.3250849480544054,-0.5045390585703161 l 11.72104657743846 -7.410130293348631" fill="#ff3905" stroke="none" /><path d="M 82.24976979558568 111.22182372390057 l -11.751536107740234 7.429405994594802 a34.90304550535758,34.90304550535758 0 0,0 -0.31667925485947807,-0.5105877917033798 l 11.877680002267669 -7.226021871526158" fill="#ff3a05" stroke="none" /><path d="M 82.05923443525364 110.91462005526583 l -12.334796053751036 7.504117474810121 a35.43810835128282,35.43810835128282 0 0,0 -0.31256263789218,-0.523872959676636 l 12.462139567341447 -7.290682421247373" fill="#ff4306" stroke="none" /><line stroke="#e1ed5e" stroke-width="0.3" x1="26.63291911575756" x2="22.317208475507996" y1="142.92168965132927" y2="145.44649492493687" /><path d="M 25.769776987707644 143.4266507060508 a86.0,86.0 0 0,1 -11.730757126820373,-40.83630448921669" fill="none" id="id21" stroke="none" /><text fill="#e1ed5e" style="font-size:6.75px; font-family:Arial;" text-anchor="middle"><textPath startOffset="21.46611528233685" xlink:href="#id21">September</textPath></text><path d="M 81.87401531095188 110.60418214915194 l -16.42591687187864 9.609597352328793 a40.03037325844535,40.03037325844535 0 0,0 -0.3428277487526979,-0.5977490769872762 l 16.588896616783718 -9.325428429483209" fill="#ff8d0d" stroke="none" /><path d="M 81.69416730710424 110.29060199501025 l -16.844191036240485 9.468941882613171 a40.32324072306895,40.32324072306895 0 0,0 -0.33492021092707197,-0.607977466984054 l 17.004687656619073 -9.177593897231294" fill="#ff910d" stroke="none" /><path d="M 81.51974371655577 109.97397251340807 l -19.145106139375873 10.332798391518109 a42.75550072252365,42.75550072252365 0 0,0 -0.34397307650759246,-0.6506674311139449 l 19.320131724108354 -10.001715945318038" fill="#ffb711" stroke="none" /><path d="M 81.35079622478065 109.6543875284942 l -19.317080895996693 10.000136581543165 a42.75206532704419,42.75206532704419 0 0,0 -0.33269520881571363,-0.6564392097960511 l 19.486354774598674 -9.66614316004443" fill="#ffb711" stroke="none" /><line stroke="#e1ed5e" stroke-width="0.3" x1="15.007084014347285" x2="10.007500721073583" y1="101.09737516637583" y2="101.16192664675087" /><path d="M 14.007167355692545 101.11028546245083 a86.0,86.0 0 0,1 10.666146001902534,-42.60595125391555" fill="none" id="id22" stroke="none" /><text fill="#e1ed5e" style="font-size:6.75px; font-family:Arial;" text-anchor="middle"><textPath startOffset="22.20632615414155" xlink:href="#id22">October</textPath></text><line stroke="#e1ed5e" stroke-width="0.3" x1="26.266209847984243" x2="21.928928074336255" y1="57.711370442889674" y2="55.22380399835377" /><path d="M 25.398753493254645 57.213857153982495 a86.0,86.0 0 0,1 29.58750427330803,-30.492523968695096" fill="none" id="id23" stroke="none" /><text fill="#e1ed5e" style="font-size:6.75px; font-family:Arial;" text-anchor="middle"><textPath startOffset="21.46611528233685" xlink:href="#id23">November</textPath></text><line stroke="#e1ed5e" stroke-width="0.3" x1="56.762969772571076" x2="54.21961505331055" y1="26.818313649435495" y2="22.513508569990535" /><path d="M 56.25429882871897 25.957352633546506 a86.0,86.0 0 0,1 42.265352541879196,-11.944610805530505" fill="none" id="id24" stroke="none" /><text fill="#e1ed5e" style="font-size:6.75px; font-family:Arial;" text-anchor="middle"><textPath startOffset="22.20632615414155" xlink:href="#id24">December</textPath></text></svg>